<svg width="25" height="20" viewBox="0 0 25 20" fill="none" xmlns="http://www.w3.org/2000/svg">
<path d="M17 4C18.1046 4 19 4.89543 19 6V14C19 15.1046 18.1046 16 17 16H9C7.89543 16 7 15.1046 7 14V11.5C7 11.2239 6.77614 11 6.5 11C6.22386 11 6 11.2239 6 11.5V14C6 15.6569 7.34315 17 9 17H17C18.6569 17 20 15.6569 20 14V6C20 4.34315 18.6569 3 17 3H14.5C14.2239 3 14 3.22386 14 3.5C14 3.77614 14.2239 4 14.5 4H17ZM12 3.5C12 3.22386 11.7761 3 11.5 3H6.5C6.22386 3 6 3.22386 6 3.5V8.5C6 8.77614 6.22386 9 6.5 9C6.77614 9 7 8.77614 7 8.5V4.70711L11.1464 8.85355C11.3417 9.04882 11.6583 9.04882 11.8536 8.85355C12.0488 8.65829 12.0488 8.34171 11.8536 8.14645L7.70711 4H11.5C11.7761 4 12 3.77614 12 3.5Z" fill="#242424"/>
</svg>
